<?xml version="1.0" encoding="utf-8"?>
<!-- Generator: Adobe Illustrator 25.4.1, SVG Export Plug-In . SVG Version: 6.00 Build 0)  -->
<svg version="1.0" id="katman_1" xmlns="http://www.w3.org/2000/svg" xmlns:xlink="http://www.w3.org/1999/xlink" x="0px" y="0px"
	 viewBox="0 0 841.9 595.3" style="enable-background:new 0 0 841.9 595.3;" xml:space="preserve">
<style type="text/css">
	
		.st0{clip-path:url(#SVGID_00000083768406819509102830000015248894499694707590_);fill-rule:evenodd;clip-rule:evenodd;fill:#FF6000;}
</style>
<g>
	<g>
		<defs>
			<rect id="SVGID_1_" x="121" y="248.7" width="598" height="98.1"/>
		</defs>
		<clipPath id="SVGID_00000018927820880316988690000006470651534747844263_">
			<use xlink:href="#SVGID_1_"  style="overflow:visible;"/>
		</clipPath>
		
			<path style="clip-path:url(#SVGID_00000018927820880316988690000006470651534747844263_);fill-rule:evenodd;clip-rule:evenodd;fill:#FF6000;" d="
			M161.4,269.9c2.8,1.2,5.1,3.1,7,5.5c1.5,2.1,2.5,4.3,2.8,6.5c0.3,2.2,0.5,5.8,0.5,10.9v33.1h-15v-34.3c0-3.1-0.5-5.5-1.5-7.4
			c-1.3-2.6-3.9-3.9-7.6-3.9c-3.9,0-6.8,1.3-8.8,3.9c-2,2.6-3,6.3-3,11.1v30.5H121V249h14.7v25.4c2.7-2.7,4.1-3.6,6.8-4.7
			c2.8-1.1,6.3-1.7,9.4-1.7C155.4,268.1,158.6,268.7,161.4,269.9L161.4,269.9z M197.3,283.4c-2.1,2.2-3.4,5.1-3.9,8.7h25.4
			c-0.3-3.9-1.6-6.9-3.9-8.9c-2.4-2-5.3-3-8.7-3C202.3,280.2,199.3,281.3,197.3,283.4L197.3,283.4z M219.3,270.7
			c3.9,1.8,7.2,4.5,9.7,8.3c2.3,3.3,3.8,7.2,4.5,11.6c0.4,2.6,0.6,6.3,0.5,11.2h-41c0.2,5.7,2.2,9.6,5.9,11.9c2.2,1.4,5,2.1,8.1,2.1
			c3.4,0,6.1-0.9,8.2-2.6c1.1-0.9,2.2-2.2,3-3.9h15.1c-0.4,3.3-2.2,6.7-5.5,10.2c-5,5.5-12.1,8.2-21.2,8.2c-7.5,0-14.1-2.3-19.8-6.9
			c-5.7-4.6-8.6-12.1-8.6-22.5c0-9.8,2.6-17.2,7.8-22.5c5.2-5.2,11.9-7.8,20.1-7.8C211,268.1,215.4,269,219.3,270.7L219.3,270.7z
			 M277.4,286.2c-2-3.3-5.3-5-9.7-5c-5.4,0-9.1,2.5-11.1,7.6c-1.1,2.7-1.6,6.1-1.6,10.2c0,6.6,1.8,11.1,5.3,13.8
			c2.1,1.6,4.5,2.3,7.4,2.3c4.1,0,7.3-1.6,9.5-4.7c2.2-3.2,3.3-7.4,3.3-12.7C280.4,293.4,279.4,289.6,277.4,286.2L277.4,286.2z
			 M288.7,275.6c4.6,4.9,6.9,12,6.9,21.4c0,9.9-2.2,17.5-6.7,22.7c-4.5,5.2-10.3,7.8-17.4,7.8c-4.5,0-8.3-1.1-11.2-3.4
			c-1.6-1.2-3.2-3.1-4.8-5.4v27.9h-14.6v-77H255v8.3c1.6-2.4,3.3-4.4,5.1-5.8c3.3-2.5,7.2-3.8,11.8-3.8
			C278.5,268.3,284.1,270.8,288.7,275.6L288.7,275.6z M315.3,307.9c0.3,2.6,1,4.5,2,5.6c1.8,2,5.2,2.9,10.2,2.9
			c2.9,0,5.2-0.4,6.9-1.3c1.7-0.9,2.6-2.2,2.6-3.9c0-1.7-0.7-2.9-2.1-3.8c-1.4-0.9-6.5-2.3-15.4-4.4c-6.4-1.6-10.9-3.6-13.5-6
			c-2.6-2.3-3.9-5.7-3.9-10.1c0-5.2,2-9.7,6.1-13.4c4.1-3.7,9.9-5.6,17.3-5.6c7,0,12.8,1.4,17.2,4.2c4.4,2.8,7,7.6,7.6,14.5h-14.7
			c-0.2-1.9-0.7-3.4-1.6-4.5c-1.6-2-4.4-3-8.3-3c-3.2,0-5.5,0.5-6.9,1.5c-1.4,1-2,2.2-2,3.5c0,1.7,0.7,2.9,2.2,3.7
			c1.5,0.8,6.6,2.2,15.4,4.1c5.9,1.4,10.3,3.4,13.2,6.2c2.9,2.8,4.3,6.4,4.3,10.6c0,5.6-2.1,10.1-6.2,13.7
			c-4.2,3.5-10.6,5.3-19.3,5.3c-8.9,0-15.4-1.9-19.7-5.6c-4.2-3.7-6.3-8.5-6.3-14.3H315.3z M359.7,325.9v-56.3h14.9v56.3H359.7z
			 M422.4,310.7c2.1-3.1,3.2-7.1,3.2-12.1c0-4-0.5-7.3-1.6-9.9c-2-4.9-5.6-7.4-11-7.4c-5.4,0-9.1,2.4-11.1,7.3
			c-1,2.6-1.6,5.9-1.6,10c0,4.8,1.1,8.8,3.2,12c2.2,3.2,5.4,4.7,9.9,4.7C417.3,315.3,420.2,313.7,422.4,310.7L422.4,310.7z
			 M434.7,276.4c4.2,5.3,6.3,12.2,6.3,20.7c0,8.8-2.1,16-6.2,21.8c-4.1,5.8-9.9,8.6-17.4,8.6c-4.7,0-8.4-0.9-11.3-2.8
			c-1.7-1.1-3.5-3-5.5-5.8v7.1h-14.5v-77.1h14.7v28.1c1.9-2.6,3.9-4.6,6.2-6c2.7-1.7,6.1-2.6,10.2-2.6
			C424.6,268.3,430.5,271,434.7,276.4L434.7,276.4z M463.8,269.6v33.9c0,3.2,0.4,5.6,1.1,7.2c1.4,2.8,4,4.3,7.9,4.3
			c5,0,8.4-2,10.3-6.1c1-2.2,1.4-5.1,1.4-8.7v-30.7h14.9v56.3h-14.3v-8c-0.4,0.5-0.7,1-1,1.6c-0.5,0.9-1.2,1.6-2,2.3
			c-2.3,2.1-4.5,3.5-6.7,4.2c-2.1,0.7-4.7,1.1-7.5,1.1c-8.3,0-13.9-3-16.8-9c-1.6-3.3-2.4-8.2-2.4-14.6v-34L463.8,269.6L463.8,269.6
			z M542.1,268.2c0.2,0,0.6,0.1,1.3,0.1v15.1c-1.4-0.2-2.8-0.3-4.2-0.3c-5.9,0-9.9,1.9-11.9,5.8c-1.1,2.2-1.7,5.5-1.7,10v26.9h-14.8
			v-56.3h14.1v9.8c2.3-3.8,4.3-6.3,5.9-7.7c2.8-2.3,6.3-3.5,10.8-3.5C541.7,268.2,541.9,268.2,542.1,268.2L542.1,268.2z
			 M642.6,310.6c2.2-3.1,3.3-7.1,3.3-12c0-6.9-1.7-11.8-5.2-14.8c-2.1-1.8-4.7-2.7-7.4-2.7c-4.3,0-7.5,1.6-9.5,4.9
			c-2,3.2-3,7.3-3,12.1c0,5.2,1,9.4,3.1,12.5c2.1,3.1,5.2,4.7,9.3,4.7C637.3,315.3,640.5,313.7,642.6,310.6L642.6,310.6z M639,270.5
			c2.7,1.5,4.9,3.7,6.5,6.2v-27.9h14.9v77.1h-14.3v-7.8c-2.1,3.3-4.5,5.8-7.2,7.3c-2.7,1.5-6,2.3-10,2.3c-6.6,0-12.1-2.7-16.6-8
			c-4.5-5.3-6.8-12.2-6.8-20.5c0-9.6,2.2-17.2,6.6-22.7c4.4-5.5,10.3-8.3,17.8-8.3C633.3,268.2,636.4,269,639,270.5L639,270.5z
			 M583.5,298.6c-0.9,0.6-1.9,1.1-2.8,1.4c-1,0.3-2.3,0.7-4,1l-3.3,0.6c-3.1,0.5-5.4,1.2-6.8,2c-2.3,1.3-3.5,3.4-3.5,6.2
			c0,2.5,0.7,4.3,2.1,5.4c1.4,1.1,3.1,1.7,5.1,1.7c3.2,0,6.2-0.9,8.9-2.8c2.7-1.8,4.1-5.2,4.2-10.1V298.6z M583.9,326
			c0,0,0.1-5.3,0-6.6c-2.1,2.2-4.4,4.1-7,5.6c-3.2,1.8-6.8,2.7-10.8,2.7c-5.1,0-9.3-1.5-12.7-4.4c-3.3-2.9-5-7-5-12.4
			c0-6.9,2.7-11.9,8-15c3-1.7,7.3-2.9,13-3.6l5-0.6c2.7-0.3,4.7-0.8,5.9-1.3c2.1-0.9,3.2-2.3,3.2-4.2c0-2.3-0.8-3.9-2.4-4.8
			c-1.6-0.9-4-1.3-7.1-1.3c-3.5,0-6,0.9-7.5,2.6c-1.1,1.3-1.8,3-2.1,5.2h-14.2c0.3-4.9,1.7-9,4.1-12.1c3.9-4.9,10.6-7.4,20.1-7.4
			c6.2,0,11.7,1.2,16.5,3.6c4.8,2.5,7.2,7.1,7.2,13.8v25.8c0,1.8,0,11.7,0.1,14.3H583.9z M703.2,298.6c-0.9,0.6-1.9,1-2.9,1.4
			c-1.3,0.4-2.6,0.8-3.9,1l-3.3,0.6c-3.1,0.5-5.4,1.2-6.8,2c-2.3,1.3-3.5,3.4-3.5,6.2c0,2.5,0.7,4.3,2.1,5.4
			c1.4,1.1,3.1,1.7,5.1,1.7c3.2,0,6.2-0.9,8.9-2.8c2.7-1.8,4.1-5.2,4.2-10.1V298.6z M703.6,326c0,0,0.1-5.3,0-6.6
			c-2.1,2.2-4.4,4.1-7.1,5.6c-3.2,1.8-6.8,2.7-10.8,2.7c-5.1,0-9.3-1.5-12.7-4.4c-3.3-2.9-5-7-5-12.4c0-6.9,2.7-11.9,8-15
			c2.9-1.7,7.3-2.9,13-3.6l5-0.6c2.7-0.3,4.7-0.8,5.9-1.3c2.1-0.9,3.2-2.3,3.2-4.2c0-2.3-0.8-3.9-2.4-4.8c-1.6-0.9-4-1.3-7.1-1.3
			c-3.5,0-6,0.9-7.5,2.6c-1.1,1.3-1.8,3-2.1,5.2h-14.2c0.3-4.9,1.7-9,4.1-12.1c3.9-4.9,10.6-7.4,20.1-7.4c6.2,0,11.7,1.2,16.5,3.6
			c4.8,2.5,7.2,7.1,7.2,13.8v25.8c0,1.8,0,11.7,0.1,14.3H703.6z M375,256.8c0.1,4.6-3.6,8.3-8.1,8.3c-4.5,0-8.2-3.7-8.1-8.3
			C358.8,246,375,246,375,256.8L375,256.8z M375,256.8"/>
	</g>
</g>
</svg>
